<mxfile host="65bd71144e">
    <diagram id="yRzsNNlzmwT56zNl8328" name="ページ1">
        <mxGraphModel dx="1431" dy="811" grid="1" gridSize="10" guides="1" tooltips="1" connect="1" arrows="1" fold="1" page="1" pageScale="1" pageWidth="1169" pageHeight="827" math="0" shadow="0">
            <root>
                <mxCell id="0"/>
                <mxCell id="1" parent="0"/>
                <mxCell id="111" value="" style="fontSize=12;html=1;endArrow=ERoneToMany;fontColor=#FFFFFF;edgeStyle=orthogonalEdgeStyle;exitX=1;exitY=0.5;exitDx=0;exitDy=0;fillColor=#e51400;strokeColor=#D79B00;rounded=1;strokeWidth=1;entryX=0;entryY=0.5;entryDx=0;entryDy=0;" parent="1" source="220" target="277" edge="1">
                    <mxGeometry width="100" height="100" relative="1" as="geometry">
                        <mxPoint x="770.0000000000002" y="690.5400000000002" as="sourcePoint"/>
                        <mxPoint x="750" y="610" as="targetPoint"/>
                        <Array as="points">
                            <mxPoint x="680" y="550"/>
                            <mxPoint x="680" y="590"/>
                        </Array>
                    </mxGeometry>
                </mxCell>
                <mxCell id="163" value="users" style="shape=table;startSize=20;container=1;collapsible=1;childLayout=tableLayout;fixedRows=1;rowLines=0;fontStyle=1;align=center;resizeLast=1;fillStyle=auto;strokeColor=#D79B00;strokeWidth=1;fontColor=#000000;fillColor=#D79B00;gradientColor=none;gradientDirection=radial;verticalAlign=middle;rounded=0;shadow=0;spacing=0;" parent="1" vertex="1">
                    <mxGeometry x="480" y="240" width="160" height="180" as="geometry"/>
                </mxCell>
                <mxCell id="164" value="" style="shape=tableRow;horizontal=0;startSize=0;swimlaneHead=0;swimlaneBody=0;fillColor=none;collapsible=0;dropTarget=0;points=[[0,0.5],[1,0.5]];portConstraint=eastwest;top=0;left=0;right=0;bottom=1;fillStyle=auto;strokeColor=#D79B00;strokeWidth=1;fontColor=#000000;" parent="163" vertex="1">
                    <mxGeometry y="20" width="160" height="20" as="geometry"/>
                </mxCell>
                <mxCell id="165" value="PK" style="shape=partialRectangle;connectable=0;fillColor=#FFFFFF;top=1;left=1;bottom=1;right=1;fontStyle=1;overflow=hidden;fillStyle=auto;strokeColor=#D79B00;strokeWidth=1;fontColor=#000000;gradientColor=none;align=center;spacingLeft=0;labelBackgroundColor=none;dashed=1;dashPattern=1 1;spacing=0;" parent="164" vertex="1">
                    <mxGeometry width="30" height="20" as="geometry">
                        <mxRectangle width="30" height="20" as="alternateBounds"/>
                    </mxGeometry>
                </mxCell>
                <mxCell id="166" value="id" style="shape=partialRectangle;connectable=0;fillColor=#FFFFFF;top=1;left=1;bottom=1;right=1;align=left;spacingLeft=6;fontStyle=5;overflow=hidden;fillStyle=auto;strokeColor=#D79B00;strokeWidth=1;fontColor=#000000;labelBackgroundColor=none;dashed=1;dashPattern=1 1;noLabel=0;portConstraintRotation=0;spacing=0;" parent="164" vertex="1">
                    <mxGeometry x="30" width="130" height="20" as="geometry">
                        <mxRectangle width="130" height="20" as="alternateBounds"/>
                    </mxGeometry>
                </mxCell>
                <mxCell id="167" value="" style="shape=tableRow;horizontal=1;startSize=0;swimlaneHead=0;swimlaneBody=0;fillColor=none;collapsible=0;dropTarget=0;points=[[0,0.5],[1,0.5]];portConstraint=eastwest;top=0;left=0;right=0;bottom=0;fillStyle=auto;strokeColor=#D79B00;strokeWidth=1;fontColor=#000000;swimlaneFillColor=default;labelBorderColor=none;labelBackgroundColor=#FF3333;" parent="163" vertex="1">
                    <mxGeometry y="40" width="160" height="20" as="geometry"/>
                </mxCell>
                <mxCell id="168" value="" style="shape=partialRectangle;connectable=0;fillColor=#CCCCCC;top=1;left=1;bottom=0;right=0;editable=1;overflow=hidden;fillStyle=auto;strokeColor=#D79B00;strokeWidth=1;fontColor=#000000;spacing=0;" parent="167" vertex="1">
                    <mxGeometry width="30" height="20" as="geometry">
                        <mxRectangle width="30" height="20" as="alternateBounds"/>
                    </mxGeometry>
                </mxCell>
                <mxCell id="169" value="name" style="shape=partialRectangle;connectable=0;fillColor=#CCCCCC;top=1;left=1;bottom=0;right=1;align=left;spacingLeft=6;overflow=hidden;fillStyle=auto;strokeColor=#D79B00;strokeWidth=1;fontColor=#000000;fontStyle=1;perimeterSpacing=0;spacing=0;" parent="167" vertex="1">
                    <mxGeometry x="30" width="130" height="20" as="geometry">
                        <mxRectangle width="130" height="20" as="alternateBounds"/>
                    </mxGeometry>
                </mxCell>
                <mxCell id="170" value="" style="shape=tableRow;horizontal=0;startSize=0;swimlaneHead=0;swimlaneBody=0;fillColor=none;collapsible=0;dropTarget=0;points=[[0,0.5],[1,0.5]];portConstraint=eastwest;top=0;left=0;right=0;bottom=0;fillStyle=auto;strokeColor=none;strokeWidth=0;fontColor=#000000;" parent="163" vertex="1">
                    <mxGeometry y="60" width="160" height="20" as="geometry"/>
                </mxCell>
                <mxCell id="171" value="" style="shape=partialRectangle;connectable=0;fillColor=#FFFFFF;top=0;left=1;bottom=0;right=1;editable=1;overflow=hidden;fillStyle=auto;strokeColor=#D79B00;strokeWidth=1;fontColor=#000000;spacing=0;" parent="170" vertex="1">
                    <mxGeometry width="30" height="20" as="geometry">
                        <mxRectangle width="30" height="20" as="alternateBounds"/>
                    </mxGeometry>
                </mxCell>
                <mxCell id="172" value="email" style="shape=partialRectangle;connectable=0;fillColor=#FFFFFF;top=0;left=1;bottom=0;right=1;align=left;spacingLeft=6;overflow=hidden;fillStyle=auto;strokeColor=#D79B00;strokeWidth=1;fontColor=#000000;fontStyle=1;spacing=0;" parent="170" vertex="1">
                    <mxGeometry x="30" width="130" height="20" as="geometry">
                        <mxRectangle width="130" height="20" as="alternateBounds"/>
                    </mxGeometry>
                </mxCell>
                <mxCell id="188" value="" style="shape=tableRow;horizontal=0;startSize=0;swimlaneHead=0;swimlaneBody=0;fillColor=none;collapsible=0;dropTarget=0;points=[[0,0.5],[1,0.5]];portConstraint=eastwest;top=0;left=0;right=0;bottom=0;fillStyle=auto;strokeColor=none;strokeWidth=0;fontColor=#000000;" parent="163" vertex="1">
                    <mxGeometry y="80" width="160" height="20" as="geometry"/>
                </mxCell>
                <mxCell id="189" value="" style="shape=partialRectangle;connectable=0;fillColor=#CCCCCC;top=0;left=1;bottom=0;right=1;editable=1;overflow=hidden;fillStyle=auto;strokeColor=#D79B00;strokeWidth=1;fontColor=#000000;spacing=0;" parent="188" vertex="1">
                    <mxGeometry width="30" height="20" as="geometry">
                        <mxRectangle width="30" height="20" as="alternateBounds"/>
                    </mxGeometry>
                </mxCell>
                <mxCell id="190" value="password" style="shape=partialRectangle;connectable=0;fillColor=#CCCCCC;top=0;left=1;bottom=0;right=1;align=left;spacingLeft=6;overflow=hidden;fillStyle=auto;strokeColor=#D79B00;strokeWidth=1;fontColor=#000000;fontStyle=1;spacing=0;" parent="188" vertex="1">
                    <mxGeometry x="30" width="130" height="20" as="geometry">
                        <mxRectangle width="130" height="20" as="alternateBounds"/>
                    </mxGeometry>
                </mxCell>
                <mxCell id="210" value="" style="shape=tableRow;horizontal=0;startSize=0;swimlaneHead=0;swimlaneBody=0;fillColor=none;collapsible=0;dropTarget=0;points=[[0,0.5],[1,0.5]];portConstraint=eastwest;top=0;left=0;right=0;bottom=0;fillStyle=auto;strokeColor=none;strokeWidth=0;fontColor=#000000;" parent="163" vertex="1">
                    <mxGeometry y="100" width="160" height="20" as="geometry"/>
                </mxCell>
                <mxCell id="211" value="" style="shape=partialRectangle;connectable=0;fillColor=#FFFFFF;top=0;left=1;bottom=0;right=1;editable=1;overflow=hidden;fillStyle=auto;strokeColor=#D79B00;strokeWidth=1;fontColor=#000000;spacing=0;" parent="210" vertex="1">
                    <mxGeometry width="30" height="20" as="geometry">
                        <mxRectangle width="30" height="20" as="alternateBounds"/>
                    </mxGeometry>
                </mxCell>
                <mxCell id="212" value="nickname" style="shape=partialRectangle;connectable=0;fillColor=#FFFFFF;top=0;left=1;bottom=0;right=1;align=left;spacingLeft=6;overflow=hidden;fillStyle=auto;strokeColor=#D79B00;strokeWidth=1;fontColor=#000000;fontStyle=1;spacing=0;" parent="210" vertex="1">
                    <mxGeometry x="30" width="130" height="20" as="geometry">
                        <mxRectangle width="130" height="20" as="alternateBounds"/>
                    </mxGeometry>
                </mxCell>
                <mxCell id="213" value="" style="shape=tableRow;horizontal=0;startSize=0;swimlaneHead=0;swimlaneBody=0;fillColor=none;collapsible=0;dropTarget=0;points=[[0,0.5],[1,0.5]];portConstraint=eastwest;top=0;left=0;right=0;bottom=0;fillStyle=auto;strokeColor=none;strokeWidth=0;fontColor=#000000;" parent="163" vertex="1">
                    <mxGeometry y="120" width="160" height="20" as="geometry"/>
                </mxCell>
                <mxCell id="214" value="" style="shape=partialRectangle;connectable=0;fillColor=#CCCCCC;top=0;left=1;bottom=0;right=1;editable=1;overflow=hidden;fillStyle=auto;strokeColor=#D79B00;strokeWidth=1;fontColor=#000000;spacing=0;" parent="213" vertex="1">
                    <mxGeometry width="30" height="20" as="geometry">
                        <mxRectangle width="30" height="20" as="alternateBounds"/>
                    </mxGeometry>
                </mxCell>
                <mxCell id="215" value="icon" style="shape=partialRectangle;connectable=0;fillColor=#CCCCCC;top=0;left=1;bottom=0;right=1;align=left;spacingLeft=6;overflow=hidden;fillStyle=auto;strokeColor=#D79B00;strokeWidth=1;fontColor=#000000;fontStyle=1;spacing=0;" parent="213" vertex="1">
                    <mxGeometry x="30" width="130" height="20" as="geometry">
                        <mxRectangle width="130" height="20" as="alternateBounds"/>
                    </mxGeometry>
                </mxCell>
                <mxCell id="216" value="" style="shape=tableRow;horizontal=0;startSize=0;swimlaneHead=0;swimlaneBody=0;fillColor=none;collapsible=0;dropTarget=0;points=[[0,0.5],[1,0.5]];portConstraint=eastwest;top=0;left=0;right=0;bottom=0;fillStyle=auto;strokeColor=none;strokeWidth=0;fontColor=#000000;" parent="163" vertex="1">
                    <mxGeometry y="140" width="160" height="20" as="geometry"/>
                </mxCell>
                <mxCell id="217" value="" style="shape=partialRectangle;connectable=0;fillColor=#FFFFFF;top=0;left=1;bottom=0;right=1;editable=1;overflow=hidden;fillStyle=auto;strokeColor=#D79B00;strokeWidth=1;fontColor=#000000;spacing=0;" parent="216" vertex="1">
                    <mxGeometry width="30" height="20" as="geometry">
                        <mxRectangle width="30" height="20" as="alternateBounds"/>
                    </mxGeometry>
                </mxCell>
                <mxCell id="218" value="create_date_time" style="shape=partialRectangle;connectable=0;fillColor=#FFFFFF;top=0;left=1;bottom=0;right=1;align=left;spacingLeft=6;overflow=hidden;fillStyle=auto;strokeColor=#D79B00;strokeWidth=1;fontColor=#000000;fontStyle=1;spacing=0;" parent="216" vertex="1">
                    <mxGeometry x="30" width="130" height="20" as="geometry">
                        <mxRectangle width="130" height="20" as="alternateBounds"/>
                    </mxGeometry>
                </mxCell>
                <mxCell id="173" value="" style="shape=tableRow;horizontal=0;startSize=0;swimlaneHead=0;swimlaneBody=0;fillColor=none;collapsible=0;dropTarget=0;points=[[0,0.5],[1,0.5]];portConstraint=eastwest;top=0;left=0;right=0;bottom=0;fillStyle=auto;strokeColor=none;strokeWidth=1;fontColor=#000000;swimlaneFillColor=none;" parent="163" vertex="1">
                    <mxGeometry y="160" width="160" height="20" as="geometry"/>
                </mxCell>
                <mxCell id="174" value="" style="shape=partialRectangle;connectable=0;fillColor=#CCCCCC;top=0;left=1;bottom=1;right=1;editable=1;overflow=hidden;fillStyle=auto;strokeColor=#D79B00;strokeWidth=1;fontColor=#000000;spacing=0;" parent="173" vertex="1">
                    <mxGeometry width="30" height="20" as="geometry">
                        <mxRectangle width="30" height="20" as="alternateBounds"/>
                    </mxGeometry>
                </mxCell>
                <mxCell id="175" value="update_date_time" style="shape=partialRectangle;connectable=0;fillColor=#CCCCCC;top=0;left=1;bottom=1;right=1;align=left;spacingLeft=6;overflow=hidden;fillStyle=auto;strokeColor=#D79B00;strokeWidth=1;fontColor=#000000;fontStyle=1;spacing=0;" parent="173" vertex="1">
                    <mxGeometry x="30" width="130" height="20" as="geometry">
                        <mxRectangle width="130" height="20" as="alternateBounds"/>
                    </mxGeometry>
                </mxCell>
                <mxCell id="219" value="tweets" style="shape=table;startSize=20;container=1;collapsible=1;childLayout=tableLayout;fixedRows=1;rowLines=0;fontStyle=1;align=center;resizeLast=1;fillStyle=auto;strokeColor=#D79B00;strokeWidth=1;fontColor=#000000;fillColor=#D79B00;gradientColor=none;gradientDirection=radial;verticalAlign=middle;rounded=0;shadow=0;spacing=0;" parent="1" vertex="1">
                    <mxGeometry x="480" y="520" width="160" height="120" as="geometry"/>
                </mxCell>
                <mxCell id="220" value="" style="shape=tableRow;horizontal=0;startSize=0;swimlaneHead=0;swimlaneBody=0;fillColor=none;collapsible=0;dropTarget=0;points=[[0,0.5],[1,0.5]];portConstraint=eastwest;top=0;left=0;right=0;bottom=1;fillStyle=auto;strokeColor=#D79B00;strokeWidth=1;fontColor=#000000;" parent="219" vertex="1">
                    <mxGeometry y="20" width="160" height="20" as="geometry"/>
                </mxCell>
                <mxCell id="221" value="PK" style="shape=partialRectangle;connectable=0;fillColor=#FFFFFF;top=1;left=1;bottom=1;right=1;fontStyle=1;overflow=hidden;fillStyle=auto;strokeColor=#D79B00;strokeWidth=1;fontColor=#000000;gradientColor=none;align=center;spacingLeft=0;labelBackgroundColor=none;dashed=1;dashPattern=1 1;" parent="220" vertex="1">
                    <mxGeometry width="30" height="20" as="geometry">
                        <mxRectangle width="30" height="20" as="alternateBounds"/>
                    </mxGeometry>
                </mxCell>
                <mxCell id="222" value="id" style="shape=partialRectangle;connectable=0;fillColor=#FFFFFF;top=1;left=1;bottom=1;right=1;align=left;spacingLeft=6;fontStyle=5;overflow=hidden;fillStyle=auto;strokeColor=#D79B00;strokeWidth=1;fontColor=#000000;labelBackgroundColor=none;dashed=1;dashPattern=1 1;noLabel=0;portConstraintRotation=0;spacing=0;" parent="220" vertex="1">
                    <mxGeometry x="30" width="130" height="20" as="geometry">
                        <mxRectangle width="130" height="20" as="alternateBounds"/>
                    </mxGeometry>
                </mxCell>
                <mxCell id="223" value="" style="shape=tableRow;horizontal=1;startSize=0;swimlaneHead=0;swimlaneBody=0;fillColor=none;collapsible=0;dropTarget=0;points=[[0,0.5],[1,0.5]];portConstraint=eastwest;top=0;left=0;right=0;bottom=0;fillStyle=auto;strokeColor=#D79B00;strokeWidth=1;fontColor=#000000;swimlaneFillColor=default;labelBorderColor=none;labelBackgroundColor=#FF3333;" parent="219" vertex="1">
                    <mxGeometry y="40" width="160" height="20" as="geometry"/>
                </mxCell>
                <mxCell id="224" value="FK" style="shape=partialRectangle;connectable=0;fillColor=#CCCCCC;top=1;left=1;bottom=0;right=0;editable=1;overflow=hidden;fillStyle=auto;strokeColor=#D79B00;strokeWidth=1;fontColor=#000000;fontStyle=1;align=center;gradientColor=none;spacingLeft=-1;labelBackgroundColor=none;dashed=1;dashPattern=1 1;" parent="223" vertex="1">
                    <mxGeometry width="30" height="20" as="geometry">
                        <mxRectangle width="30" height="20" as="alternateBounds"/>
                    </mxGeometry>
                </mxCell>
                <mxCell id="225" value="user_id" style="shape=partialRectangle;connectable=0;fillColor=#CCCCCC;top=1;left=1;bottom=0;right=1;align=left;spacingLeft=6;overflow=hidden;fillStyle=auto;strokeColor=#D79B00;strokeWidth=1;fontColor=#000000;fontStyle=1;perimeterSpacing=0;spacing=0;" parent="223" vertex="1">
                    <mxGeometry x="30" width="130" height="20" as="geometry">
                        <mxRectangle width="130" height="20" as="alternateBounds"/>
                    </mxGeometry>
                </mxCell>
                <mxCell id="226" value="" style="shape=tableRow;horizontal=0;startSize=0;swimlaneHead=0;swimlaneBody=0;fillColor=none;collapsible=0;dropTarget=0;points=[[0,0.5],[1,0.5]];portConstraint=eastwest;top=0;left=0;right=0;bottom=0;fillStyle=auto;strokeColor=none;strokeWidth=0;fontColor=#000000;" parent="219" vertex="1">
                    <mxGeometry y="60" width="160" height="20" as="geometry"/>
                </mxCell>
                <mxCell id="227" value="" style="shape=partialRectangle;connectable=0;fillColor=#FFFFFF;top=0;left=1;bottom=0;right=1;editable=1;overflow=hidden;fillStyle=auto;strokeColor=#D79B00;strokeWidth=1;fontColor=#000000;" parent="226" vertex="1">
                    <mxGeometry width="30" height="20" as="geometry">
                        <mxRectangle width="30" height="20" as="alternateBounds"/>
                    </mxGeometry>
                </mxCell>
                <mxCell id="228" value="content" style="shape=partialRectangle;connectable=0;fillColor=#FFFFFF;top=0;left=1;bottom=0;right=1;align=left;spacingLeft=6;overflow=hidden;fillStyle=auto;strokeColor=#D79B00;strokeWidth=1;fontColor=#000000;fontStyle=1;spacing=0;" parent="226" vertex="1">
                    <mxGeometry x="30" width="130" height="20" as="geometry">
                        <mxRectangle width="130" height="20" as="alternateBounds"/>
                    </mxGeometry>
                </mxCell>
                <mxCell id="229" value="" style="shape=tableRow;horizontal=0;startSize=0;swimlaneHead=0;swimlaneBody=0;fillColor=none;collapsible=0;dropTarget=0;points=[[0,0.5],[1,0.5]];portConstraint=eastwest;top=0;left=0;right=0;bottom=0;fillStyle=auto;strokeColor=none;strokeWidth=0;fontColor=#000000;" parent="219" vertex="1">
                    <mxGeometry y="80" width="160" height="20" as="geometry"/>
                </mxCell>
                <mxCell id="230" value="" style="shape=partialRectangle;connectable=0;fillColor=#CCCCCC;top=0;left=1;bottom=0;right=1;editable=1;overflow=hidden;fillStyle=auto;strokeColor=#D79B00;strokeWidth=1;fontColor=#000000;" parent="229" vertex="1">
                    <mxGeometry width="30" height="20" as="geometry">
                        <mxRectangle width="30" height="20" as="alternateBounds"/>
                    </mxGeometry>
                </mxCell>
                <mxCell id="231" value="image" style="shape=partialRectangle;connectable=0;fillColor=#CCCCCC;top=0;left=1;bottom=0;right=1;align=left;spacingLeft=6;overflow=hidden;fillStyle=auto;strokeColor=#D79B00;strokeWidth=1;fontColor=#000000;fontStyle=1;spacing=0;" parent="229" vertex="1">
                    <mxGeometry x="30" width="130" height="20" as="geometry">
                        <mxRectangle width="130" height="20" as="alternateBounds"/>
                    </mxGeometry>
                </mxCell>
                <mxCell id="232" value="" style="shape=tableRow;horizontal=0;startSize=0;swimlaneHead=0;swimlaneBody=0;fillColor=none;collapsible=0;dropTarget=0;points=[[0,0.5],[1,0.5]];portConstraint=eastwest;top=0;left=0;right=0;bottom=0;fillStyle=auto;strokeColor=none;strokeWidth=0;fontColor=#000000;" parent="219" vertex="1">
                    <mxGeometry y="100" width="160" height="20" as="geometry"/>
                </mxCell>
                <mxCell id="233" value="" style="shape=partialRectangle;connectable=0;fillColor=#FFFFFF;top=0;left=1;bottom=1;right=1;editable=1;overflow=hidden;fillStyle=auto;strokeColor=#D79B00;strokeWidth=1;fontColor=#000000;" parent="232" vertex="1">
                    <mxGeometry width="30" height="20" as="geometry">
                        <mxRectangle width="30" height="20" as="alternateBounds"/>
                    </mxGeometry>
                </mxCell>
                <mxCell id="234" value="create_date_time" style="shape=partialRectangle;connectable=0;fillColor=#FFFFFF;top=0;left=1;bottom=1;right=1;align=left;spacingLeft=6;overflow=hidden;fillStyle=auto;strokeColor=#D79B00;strokeWidth=1;fontColor=#000000;fontStyle=1;spacing=0;" parent="232" vertex="1">
                    <mxGeometry x="30" width="130" height="20" as="geometry">
                        <mxRectangle width="130" height="20" as="alternateBounds"/>
                    </mxGeometry>
                </mxCell>
                <mxCell id="270" value="favorites" style="shape=table;startSize=20;container=1;collapsible=1;childLayout=tableLayout;fixedRows=1;rowLines=0;fontStyle=1;align=center;resizeLast=1;fillStyle=auto;strokeColor=#D79B00;strokeWidth=1;fontColor=#000000;fillColor=#D79B00;gradientColor=none;gradientDirection=radial;verticalAlign=middle;rounded=0;shadow=0;spacing=0;" parent="1" vertex="1">
                    <mxGeometry x="800" y="520" width="160" height="80" as="geometry"/>
                </mxCell>
                <mxCell id="271" value="" style="shape=tableRow;horizontal=0;startSize=0;swimlaneHead=0;swimlaneBody=0;fillColor=none;collapsible=0;dropTarget=0;points=[[0,0.5],[1,0.5]];portConstraint=eastwest;top=0;left=0;right=0;bottom=1;fillStyle=auto;strokeColor=#D79B00;strokeWidth=1;fontColor=#000000;" parent="270" vertex="1">
                    <mxGeometry y="20" width="160" height="20" as="geometry"/>
                </mxCell>
                <mxCell id="272" value="PK" style="shape=partialRectangle;connectable=0;fillColor=#FFFFFF;top=1;left=1;bottom=1;right=1;fontStyle=1;overflow=hidden;fillStyle=auto;strokeColor=#D79B00;strokeWidth=1;fontColor=#000000;gradientColor=none;align=center;spacingLeft=0;labelBackgroundColor=none;dashed=1;dashPattern=1 1;spacing=0;" parent="271" vertex="1">
                    <mxGeometry width="30" height="20" as="geometry">
                        <mxRectangle width="30" height="20" as="alternateBounds"/>
                    </mxGeometry>
                </mxCell>
                <mxCell id="273" value="id" style="shape=partialRectangle;connectable=0;fillColor=#FFFFFF;top=1;left=1;bottom=1;right=1;align=left;spacingLeft=6;fontStyle=5;overflow=hidden;fillStyle=auto;strokeColor=#D79B00;strokeWidth=1;fontColor=#000000;labelBackgroundColor=none;dashed=1;dashPattern=1 1;noLabel=0;portConstraintRotation=0;spacing=0;" parent="271" vertex="1">
                    <mxGeometry x="30" width="130" height="20" as="geometry">
                        <mxRectangle width="130" height="20" as="alternateBounds"/>
                    </mxGeometry>
                </mxCell>
                <mxCell id="274" value="" style="shape=tableRow;horizontal=1;startSize=0;swimlaneHead=0;swimlaneBody=0;fillColor=none;collapsible=0;dropTarget=0;points=[[0,0.5],[1,0.5]];portConstraint=eastwest;top=0;left=0;right=0;bottom=0;fillStyle=auto;strokeColor=#D79B00;strokeWidth=1;fontColor=#000000;swimlaneFillColor=default;labelBorderColor=none;labelBackgroundColor=#FF3333;" parent="270" vertex="1">
                    <mxGeometry y="40" width="160" height="20" as="geometry"/>
                </mxCell>
                <mxCell id="275" value="FK" style="shape=partialRectangle;connectable=0;fillColor=#CCCCCC;top=1;left=1;bottom=0;right=0;editable=1;overflow=hidden;fillStyle=auto;strokeColor=#D79B00;strokeWidth=1;fontColor=#000000;fontStyle=1;align=center;gradientColor=none;spacingLeft=0;labelBackgroundColor=none;dashed=1;dashPattern=1 1;spacing=0;" parent="274" vertex="1">
                    <mxGeometry width="30" height="20" as="geometry">
                        <mxRectangle width="30" height="20" as="alternateBounds"/>
                    </mxGeometry>
                </mxCell>
                <mxCell id="276" value="user_id" style="shape=partialRectangle;connectable=0;fillColor=#CCCCCC;top=1;left=1;bottom=0;right=1;align=left;spacingLeft=6;overflow=hidden;fillStyle=auto;strokeColor=#D79B00;strokeWidth=1;fontColor=#000000;fontStyle=1;perimeterSpacing=0;spacing=0;" parent="274" vertex="1">
                    <mxGeometry x="30" width="130" height="20" as="geometry">
                        <mxRectangle width="130" height="20" as="alternateBounds"/>
                    </mxGeometry>
                </mxCell>
                <mxCell id="277" value="" style="shape=tableRow;horizontal=0;startSize=0;swimlaneHead=0;swimlaneBody=0;fillColor=none;collapsible=0;dropTarget=0;points=[[0,0.5],[1,0.5]];portConstraint=eastwest;top=0;left=0;right=0;bottom=0;fillStyle=auto;strokeColor=none;strokeWidth=0;fontColor=#000000;" parent="270" vertex="1">
                    <mxGeometry y="60" width="160" height="20" as="geometry"/>
                </mxCell>
                <mxCell id="278" value="FK" style="shape=partialRectangle;connectable=0;fillColor=#FFFFFF;top=0;left=1;bottom=1;right=1;editable=1;overflow=hidden;fillStyle=auto;strokeColor=#D79B00;strokeWidth=1;fontColor=#000000;fontStyle=1;align=center;spacing=0;" parent="277" vertex="1">
                    <mxGeometry width="30" height="20" as="geometry">
                        <mxRectangle width="30" height="20" as="alternateBounds"/>
                    </mxGeometry>
                </mxCell>
                <mxCell id="279" value="tweet_id" style="shape=partialRectangle;connectable=0;fillColor=#FFFFFF;top=0;left=1;bottom=1;right=1;align=left;spacingLeft=6;overflow=hidden;fillStyle=auto;strokeColor=#D79B00;strokeWidth=1;fontColor=#000000;fontStyle=1;spacing=0;" parent="277" vertex="1">
                    <mxGeometry x="30" width="130" height="20" as="geometry">
                        <mxRectangle width="130" height="20" as="alternateBounds"/>
                    </mxGeometry>
                </mxCell>
                <mxCell id="289" value="followers" style="shape=table;startSize=20;container=1;collapsible=1;childLayout=tableLayout;fixedRows=1;rowLines=0;fontStyle=1;align=center;resizeLast=1;fillStyle=auto;strokeColor=#D79B00;strokeWidth=1;fontColor=#000000;fillColor=#D79B00;gradientColor=none;gradientDirection=radial;verticalAlign=middle;rounded=0;shadow=0;spacing=0;" parent="1" vertex="1">
                    <mxGeometry x="800" y="240" width="160" height="60" as="geometry"/>
                </mxCell>
                <mxCell id="296" value="" style="shape=tableRow;horizontal=0;startSize=0;swimlaneHead=0;swimlaneBody=0;fillColor=none;collapsible=0;dropTarget=0;points=[[0,0.5],[1,0.5]];portConstraint=eastwest;top=0;left=0;right=0;bottom=0;fillStyle=auto;strokeColor=none;strokeWidth=0;fontColor=#000000;" parent="289" vertex="1">
                    <mxGeometry y="20" width="160" height="20" as="geometry"/>
                </mxCell>
                <mxCell id="297" value="FK" style="shape=partialRectangle;connectable=0;fillColor=#FFFFFF;top=0;left=1;bottom=0;right=1;editable=1;overflow=hidden;fillStyle=auto;strokeColor=#D79B00;strokeWidth=1;fontColor=#000000;fontStyle=1;align=center;spacing=0;" parent="296" vertex="1">
                    <mxGeometry width="30" height="20" as="geometry">
                        <mxRectangle width="30" height="20" as="alternateBounds"/>
                    </mxGeometry>
                </mxCell>
                <mxCell id="298" value="following_id" style="shape=partialRectangle;connectable=0;fillColor=#FFFFFF;top=0;left=1;bottom=0;right=1;align=left;spacingLeft=6;overflow=hidden;fillStyle=auto;strokeColor=#D79B00;strokeWidth=1;fontColor=#000000;fontStyle=1;spacing=0;" parent="296" vertex="1">
                    <mxGeometry x="30" width="130" height="20" as="geometry">
                        <mxRectangle width="130" height="20" as="alternateBounds"/>
                    </mxGeometry>
                </mxCell>
                <mxCell id="305" value="" style="shape=tableRow;horizontal=0;startSize=0;swimlaneHead=0;swimlaneBody=0;fillColor=none;collapsible=0;dropTarget=0;points=[[0,0.5],[1,0.5]];portConstraint=eastwest;top=0;left=0;right=0;bottom=0;fillStyle=auto;strokeColor=none;strokeWidth=1;fontColor=#000000;swimlaneFillColor=none;" parent="289" vertex="1">
                    <mxGeometry y="40" width="160" height="20" as="geometry"/>
                </mxCell>
                <mxCell id="306" value="FK" style="shape=partialRectangle;connectable=0;fillColor=#CCCCCC;top=0;left=1;bottom=1;right=1;editable=1;overflow=hidden;fillStyle=auto;strokeColor=#D79B00;strokeWidth=1;fontColor=#000000;spacing=0;fontStyle=1" parent="305" vertex="1">
                    <mxGeometry width="30" height="20" as="geometry">
                        <mxRectangle width="30" height="20" as="alternateBounds"/>
                    </mxGeometry>
                </mxCell>
                <mxCell id="307" value="followed_id" style="shape=partialRectangle;connectable=0;fillColor=#CCCCCC;top=0;left=1;bottom=1;right=1;align=left;spacingLeft=6;overflow=hidden;fillStyle=auto;strokeColor=#D79B00;strokeWidth=1;fontColor=#000000;fontStyle=1;spacing=0;" parent="305" vertex="1">
                    <mxGeometry x="30" width="130" height="20" as="geometry">
                        <mxRectangle width="130" height="20" as="alternateBounds"/>
                    </mxGeometry>
                </mxCell>
                <mxCell id="308" value="rooms" style="shape=table;startSize=20;container=1;collapsible=1;childLayout=tableLayout;fixedRows=1;rowLines=0;fontStyle=1;align=center;resizeLast=1;fillStyle=auto;strokeColor=#D79B00;strokeWidth=1;fontColor=#000000;fillColor=#D79B00;gradientColor=none;gradientDirection=radial;verticalAlign=middle;rounded=0;shadow=0;spacing=0;" parent="1" vertex="1">
                    <mxGeometry x="160" y="240" width="160" height="60" as="geometry"/>
                </mxCell>
                <mxCell id="309" value="" style="shape=tableRow;horizontal=0;startSize=0;swimlaneHead=0;swimlaneBody=0;fillColor=none;collapsible=0;dropTarget=0;points=[[0,0.5],[1,0.5]];portConstraint=eastwest;top=0;left=0;right=0;bottom=1;fillStyle=auto;strokeColor=#D79B00;strokeWidth=1;fontColor=#000000;" parent="308" vertex="1">
                    <mxGeometry y="20" width="160" height="20" as="geometry"/>
                </mxCell>
                <mxCell id="310" value="PK" style="shape=partialRectangle;connectable=0;fillColor=#FFFFFF;top=1;left=1;bottom=1;right=1;fontStyle=1;overflow=hidden;fillStyle=auto;strokeColor=#D79B00;strokeWidth=1;fontColor=#000000;gradientColor=none;align=center;spacingLeft=0;labelBackgroundColor=none;dashed=1;dashPattern=1 1;spacing=0;" parent="309" vertex="1">
                    <mxGeometry width="30" height="20" as="geometry">
                        <mxRectangle width="30" height="20" as="alternateBounds"/>
                    </mxGeometry>
                </mxCell>
                <mxCell id="311" value="id" style="shape=partialRectangle;connectable=0;fillColor=#FFFFFF;top=1;left=1;bottom=1;right=1;align=left;spacingLeft=6;fontStyle=5;overflow=hidden;fillStyle=auto;strokeColor=#D79B00;strokeWidth=1;fontColor=#000000;labelBackgroundColor=none;dashed=1;dashPattern=1 1;noLabel=0;portConstraintRotation=0;spacing=0;" parent="309" vertex="1">
                    <mxGeometry x="30" width="130" height="20" as="geometry">
                        <mxRectangle width="130" height="20" as="alternateBounds"/>
                    </mxGeometry>
                </mxCell>
                <mxCell id="312" value="" style="shape=tableRow;horizontal=1;startSize=0;swimlaneHead=0;swimlaneBody=0;fillColor=none;collapsible=0;dropTarget=0;points=[[0,0.5],[1,0.5]];portConstraint=eastwest;top=0;left=0;right=0;bottom=0;fillStyle=auto;strokeColor=#D79B00;strokeWidth=1;fontColor=#000000;swimlaneFillColor=default;labelBorderColor=none;labelBackgroundColor=#FF3333;" parent="308" vertex="1">
                    <mxGeometry y="40" width="160" height="20" as="geometry"/>
                </mxCell>
                <mxCell id="313" value="FK" style="shape=partialRectangle;connectable=0;fillColor=#CCCCCC;top=1;left=1;bottom=1;right=1;editable=1;overflow=hidden;fillStyle=auto;strokeColor=#D79B00;strokeWidth=1;fontColor=#000000;fontStyle=1;align=center;gradientColor=none;spacingLeft=0;labelBackgroundColor=none;dashed=1;dashPattern=1 1;spacing=0;" parent="312" vertex="1">
                    <mxGeometry width="30" height="20" as="geometry">
                        <mxRectangle width="30" height="20" as="alternateBounds"/>
                    </mxGeometry>
                </mxCell>
                <mxCell id="314" value="user_id" style="shape=partialRectangle;connectable=0;fillColor=#CCCCCC;top=1;left=1;bottom=1;right=1;align=left;spacingLeft=6;overflow=hidden;fillStyle=auto;strokeColor=#D79B00;strokeWidth=1;fontColor=#000000;fontStyle=1;perimeterSpacing=0;spacing=0;" parent="312" vertex="1">
                    <mxGeometry x="30" width="130" height="20" as="geometry">
                        <mxRectangle width="130" height="20" as="alternateBounds"/>
                    </mxGeometry>
                </mxCell>
                <mxCell id="318" value="messages" style="shape=table;startSize=20;container=1;collapsible=1;childLayout=tableLayout;fixedRows=1;rowLines=0;fontStyle=1;align=center;resizeLast=1;fillStyle=auto;strokeColor=#D79B00;strokeWidth=1;fontColor=#000000;fillColor=#D79B00;gradientColor=none;gradientDirection=radial;verticalAlign=middle;rounded=0;shadow=0;spacing=0;" parent="1" vertex="1">
                    <mxGeometry x="160" y="520" width="160" height="100" as="geometry"/>
                </mxCell>
                <mxCell id="319" value="" style="shape=tableRow;horizontal=0;startSize=0;swimlaneHead=0;swimlaneBody=0;fillColor=none;collapsible=0;dropTarget=0;points=[[0,0.5],[1,0.5]];portConstraint=eastwest;top=0;left=0;right=0;bottom=0;fillStyle=auto;strokeColor=none;strokeWidth=0;fontColor=#000000;" parent="318" vertex="1">
                    <mxGeometry y="20" width="160" height="20" as="geometry"/>
                </mxCell>
                <mxCell id="320" value="FK" style="shape=partialRectangle;connectable=0;fillColor=#FFFFFF;top=0;left=1;bottom=0;right=1;editable=1;overflow=hidden;fillStyle=auto;strokeColor=#D79B00;strokeWidth=1;fontColor=#000000;fontStyle=1;align=center;spacing=0;" parent="319" vertex="1">
                    <mxGeometry width="30" height="20" as="geometry">
                        <mxRectangle width="30" height="20" as="alternateBounds"/>
                    </mxGeometry>
                </mxCell>
                <mxCell id="321" value="room_id" style="shape=partialRectangle;connectable=0;fillColor=#FFFFFF;top=0;left=1;bottom=0;right=1;align=left;spacingLeft=6;overflow=hidden;fillStyle=auto;strokeColor=#D79B00;strokeWidth=1;fontColor=#000000;fontStyle=1;spacing=0;" parent="319" vertex="1">
                    <mxGeometry x="30" width="130" height="20" as="geometry">
                        <mxRectangle width="130" height="20" as="alternateBounds"/>
                    </mxGeometry>
                </mxCell>
                <mxCell id="322" value="" style="shape=tableRow;horizontal=0;startSize=0;swimlaneHead=0;swimlaneBody=0;fillColor=none;collapsible=0;dropTarget=0;points=[[0,0.5],[1,0.5]];portConstraint=eastwest;top=0;left=0;right=0;bottom=0;fillStyle=auto;strokeColor=none;strokeWidth=1;fontColor=#000000;swimlaneFillColor=none;" parent="318" vertex="1">
                    <mxGeometry y="40" width="160" height="20" as="geometry"/>
                </mxCell>
                <mxCell id="323" value="FK" style="shape=partialRectangle;connectable=0;fillColor=#CCCCCC;top=0;left=1;bottom=0;right=1;editable=1;overflow=hidden;fillStyle=auto;strokeColor=#D79B00;strokeWidth=1;fontColor=#000000;spacing=0;fontStyle=1" parent="322" vertex="1">
                    <mxGeometry width="30" height="20" as="geometry">
                        <mxRectangle width="30" height="20" as="alternateBounds"/>
                    </mxGeometry>
                </mxCell>
                <mxCell id="324" value="user_id" style="shape=partialRectangle;connectable=0;fillColor=#CCCCCC;top=0;left=1;bottom=0;right=1;align=left;spacingLeft=6;overflow=hidden;fillStyle=auto;strokeColor=#D79B00;strokeWidth=1;fontColor=#000000;fontStyle=1;spacing=0;" parent="322" vertex="1">
                    <mxGeometry x="30" width="130" height="20" as="geometry">
                        <mxRectangle width="130" height="20" as="alternateBounds"/>
                    </mxGeometry>
                </mxCell>
                <mxCell id="348" style="shape=tableRow;horizontal=0;startSize=0;swimlaneHead=0;swimlaneBody=0;fillColor=none;collapsible=0;dropTarget=0;points=[[0,0.5],[1,0.5]];portConstraint=eastwest;top=0;left=0;right=0;bottom=0;fillStyle=auto;strokeColor=none;strokeWidth=1;fontColor=#000000;swimlaneFillColor=none;" parent="318" vertex="1">
                    <mxGeometry y="60" width="160" height="20" as="geometry"/>
                </mxCell>
                <mxCell id="349" style="shape=partialRectangle;connectable=0;fillColor=#FFFFFF;top=0;left=1;bottom=0;right=1;editable=1;overflow=hidden;fillStyle=auto;strokeColor=#D79B00;strokeWidth=1;fontColor=#000000;spacing=0;fontStyle=1" parent="348" vertex="1">
                    <mxGeometry width="30" height="20" as="geometry">
                        <mxRectangle width="30" height="20" as="alternateBounds"/>
                    </mxGeometry>
                </mxCell>
                <mxCell id="350" value="message" style="shape=partialRectangle;connectable=0;fillColor=#FFFFFF;top=0;left=1;bottom=0;right=1;align=left;spacingLeft=6;overflow=hidden;fillStyle=auto;strokeColor=#D79B00;strokeWidth=1;fontColor=#000000;fontStyle=1;spacing=0;" parent="348" vertex="1">
                    <mxGeometry x="30" width="130" height="20" as="geometry">
                        <mxRectangle width="130" height="20" as="alternateBounds"/>
                    </mxGeometry>
                </mxCell>
                <mxCell id="360" style="shape=tableRow;horizontal=0;startSize=0;swimlaneHead=0;swimlaneBody=0;fillColor=none;collapsible=0;dropTarget=0;points=[[0,0.5],[1,0.5]];portConstraint=eastwest;top=0;left=0;right=0;bottom=0;fillStyle=auto;strokeColor=none;strokeWidth=1;fontColor=#000000;swimlaneFillColor=none;" parent="318" vertex="1">
                    <mxGeometry y="80" width="160" height="20" as="geometry"/>
                </mxCell>
                <mxCell id="361" style="shape=partialRectangle;connectable=0;fillColor=#CCCCCC;top=0;left=1;bottom=1;right=1;editable=1;overflow=hidden;fillStyle=auto;strokeColor=#D79B00;strokeWidth=1;fontColor=#000000;spacing=0;fontStyle=1" parent="360" vertex="1">
                    <mxGeometry width="30" height="20" as="geometry">
                        <mxRectangle width="30" height="20" as="alternateBounds"/>
                    </mxGeometry>
                </mxCell>
                <mxCell id="362" value="create_date_time" style="shape=partialRectangle;connectable=0;fillColor=#CCCCCC;top=0;left=1;bottom=1;right=1;align=left;spacingLeft=6;overflow=hidden;fillStyle=auto;strokeColor=#D79B00;strokeWidth=1;fontColor=#000000;fontStyle=1;spacing=0;" parent="360" vertex="1">
                    <mxGeometry x="30" width="130" height="20" as="geometry">
                        <mxRectangle width="130" height="20" as="alternateBounds"/>
                    </mxGeometry>
                </mxCell>
                <mxCell id="351" value="" style="fontSize=12;html=1;endArrow=ERoneToMany;fontColor=#FFFFFF;edgeStyle=orthogonalEdgeStyle;fillColor=#e51400;strokeColor=#D79B00;rounded=1;strokeWidth=1;exitX=0;exitY=0.5;exitDx=0;exitDy=0;entryX=0;entryY=0.5;entryDx=0;entryDy=0;" parent="1" source="164" target="223" edge="1">
                    <mxGeometry width="100" height="100" relative="1" as="geometry">
                        <mxPoint x="440" y="350" as="sourcePoint"/>
                        <mxPoint x="470" y="550" as="targetPoint"/>
                        <Array as="points">
                            <mxPoint x="440" y="270"/>
                            <mxPoint x="440" y="570"/>
                        </Array>
                    </mxGeometry>
                </mxCell>
                <mxCell id="352" value="" style="fontSize=12;html=1;endArrow=ERoneToMany;fontColor=#FFFFFF;edgeStyle=orthogonalEdgeStyle;exitX=1;exitY=0.5;exitDx=0;exitDy=0;fillColor=#e51400;strokeColor=#D79B00;rounded=1;strokeWidth=1;entryX=0;entryY=0.5;entryDx=0;entryDy=0;" parent="1" source="164" target="274" edge="1">
                    <mxGeometry width="100" height="100" relative="1" as="geometry">
                        <mxPoint x="660" y="280" as="sourcePoint"/>
                        <mxPoint x="740" y="240" as="targetPoint"/>
                        <Array as="points">
                            <mxPoint x="720" y="270"/>
                            <mxPoint x="720" y="570"/>
                        </Array>
                    </mxGeometry>
                </mxCell>
                <mxCell id="353" value="" style="fontSize=12;html=1;endArrow=ERoneToMany;fontColor=#FFFFFF;edgeStyle=orthogonalEdgeStyle;fillColor=#e51400;strokeColor=#D79B00;rounded=1;strokeWidth=1;entryX=0;entryY=0.5;entryDx=0;entryDy=0;" parent="1" target="296" edge="1">
                    <mxGeometry width="100" height="100" relative="1" as="geometry">
                        <mxPoint x="640" y="270" as="sourcePoint"/>
                        <mxPoint x="730" y="500" as="targetPoint"/>
                        <Array as="points">
                            <mxPoint x="670" y="270"/>
                            <mxPoint x="670" y="270"/>
                        </Array>
                    </mxGeometry>
                </mxCell>
                <mxCell id="354" value="" style="fontSize=12;html=1;endArrow=ERoneToMany;fontColor=#FFFFFF;edgeStyle=orthogonalEdgeStyle;fillColor=#e51400;strokeColor=#D79B00;rounded=1;strokeWidth=1;entryX=0;entryY=0.5;entryDx=0;entryDy=0;exitX=1;exitY=0.5;exitDx=0;exitDy=0;" parent="1" source="164" target="305" edge="1">
                    <mxGeometry width="100" height="100" relative="1" as="geometry">
                        <mxPoint x="649.9999999999999" y="280" as="sourcePoint"/>
                        <mxPoint x="810" y="280" as="targetPoint"/>
                    </mxGeometry>
                </mxCell>
                <mxCell id="355" value="" style="fontSize=12;html=1;endArrow=ERoneToMany;fontColor=#FFFFFF;edgeStyle=orthogonalEdgeStyle;fillColor=#e51400;strokeColor=#D79B00;rounded=1;strokeWidth=1;exitX=0;exitY=0.5;exitDx=0;exitDy=0;entryX=0;entryY=0.5;entryDx=0;entryDy=0;" parent="1" source="309" target="319" edge="1">
                    <mxGeometry width="100" height="100" relative="1" as="geometry">
                        <mxPoint x="120" y="280" as="sourcePoint"/>
                        <mxPoint x="120" y="580" as="targetPoint"/>
                        <Array as="points">
                            <mxPoint x="120" y="270"/>
                            <mxPoint x="120" y="550"/>
                        </Array>
                    </mxGeometry>
                </mxCell>
                <mxCell id="356" value="" style="fontSize=12;html=1;endArrow=ERoneToMany;fontColor=#FFFFFF;edgeStyle=orthogonalEdgeStyle;fillColor=#e51400;strokeColor=#D79B00;rounded=1;strokeWidth=1;exitX=0;exitY=0.5;exitDx=0;exitDy=0;entryX=1;entryY=0.5;entryDx=0;entryDy=0;" parent="1" source="164" target="322" edge="1">
                    <mxGeometry width="100" height="100" relative="1" as="geometry">
                        <mxPoint x="490" y="280" as="sourcePoint"/>
                        <mxPoint x="490" y="580" as="targetPoint"/>
                        <Array as="points">
                            <mxPoint x="400" y="270"/>
                            <mxPoint x="400" y="570"/>
                        </Array>
                    </mxGeometry>
                </mxCell>
                <mxCell id="357" value="" style="fontSize=12;html=1;endArrow=ERoneToMany;fontColor=#FFFFFF;edgeStyle=orthogonalEdgeStyle;fillColor=#e51400;strokeColor=#D79B00;rounded=1;strokeWidth=1;exitX=0;exitY=0.5;exitDx=0;exitDy=0;entryX=1;entryY=0.5;entryDx=0;entryDy=0;" parent="1" source="164" target="312" edge="1">
                    <mxGeometry width="100" height="100" relative="1" as="geometry">
                        <mxPoint x="490" y="280" as="sourcePoint"/>
                        <mxPoint x="330" y="460" as="targetPoint"/>
                        <Array as="points">
                            <mxPoint x="400" y="270"/>
                            <mxPoint x="400" y="290"/>
                        </Array>
                    </mxGeometry>
                </mxCell>
            </root>
        </mxGraphModel>
    </diagram>
</mxfile>